<svg xmlns="http://www.w3.org/2000/svg" xmlns:xlink="http://www.w3.org/1999/xlink" width="1080" zoomAndPan="magnify" viewBox="0 0 810 809.999993" height="1080" preserveAspectRatio="xMidYMid meet" version="1.0"><defs><clipPath id="29e0510e7b"><path d="M 23.183594 694.011719 L 57.683594 694.011719 L 57.683594 737 L 23.183594 737 Z M 23.183594 694.011719 " clip-rule="nonzero"/></clipPath><clipPath id="6a80d45a9b"><path d="M 35 741 L 46 741 L 46 751.761719 L 35 751.761719 Z M 35 741 " clip-rule="nonzero"/></clipPath><clipPath id="d45b6ecba2"><path d="M 729 29 L 763.5 29 L 763.5 72 L 729 72 Z M 729 29 " clip-rule="nonzero"/></clipPath><clipPath id="a1e33d53a2"><path d="M 740 76 L 752 76 L 752 86.734375 L 740 86.734375 Z M 740 76 " clip-rule="nonzero"/></clipPath></defs><path fill="#2563eb" d="M 715.890625 404.996094 L 736.84375 340.308594 C 752.511719 291.898438 730.714844 239.238281 685.398438 216.09375 L 624.859375 185.167969 L 593.929688 124.625 C 570.785156 79.3125 518.128906 57.480469 469.714844 73.179688 L 404.996094 94.101562 L 340.308594 73.148438 C 291.898438 57.480469 239.238281 79.277344 216.09375 124.589844 L 185.132812 185.132812 L 124.589844 216.09375 C 79.277344 239.238281 57.480469 291.898438 73.148438 340.308594 L 94.101562 404.996094 L 73.148438 469.679688 C 57.480469 518.09375 79.277344 570.75 124.589844 593.898438 L 185.132812 624.824219 L 216.0625 685.367188 C 239.207031 730.679688 291.863281 752.511719 340.277344 736.8125 L 404.996094 715.890625 L 469.679688 736.84375 C 518.09375 752.511719 570.75 730.714844 593.898438 685.398438 L 624.824219 624.859375 L 685.367188 593.929688 C 730.679688 570.785156 752.511719 518.128906 736.8125 469.714844 Z M 421.839844 607.136719 L 388.152344 607.136719 C 378.851562 607.136719 371.304688 599.589844 371.304688 590.292969 L 371.304688 556.601562 C 371.304688 547.304688 378.851562 539.757812 388.152344 539.757812 L 421.839844 539.757812 C 431.140625 539.757812 438.6875 547.304688 438.6875 556.601562 L 438.6875 590.292969 C 438.6875 599.589844 431.140625 607.136719 421.839844 607.136719 Z M 473.253906 458.496094 C 458.53125 471.703125 448.085938 481.4375 442.730469 491.109375 C 437.304688 501.011719 425.917969 506.066406 414.632812 506.066406 C 388.183594 506.066406 372.316406 476.992188 386.164062 454.453125 C 397.652344 435.789062 413.921875 421.199219 428.207031 408.363281 C 455.597656 383.804688 472.375 367.230469 472.375 337.617188 C 472.375 311.574219 454.082031 270.234375 404.996094 270.234375 C 372.011719 270.234375 352.203125 295.300781 343.273438 315.886719 C 337.714844 328.6875 325.925781 337.617188 311.976562 337.617188 L 311.605469 337.617188 C 287.519531 337.617188 271.449219 313.019531 280.78125 290.820312 C 298.9375 247.664062 340.378906 202.855469 404.996094 202.855469 C 489.355469 202.855469 539.757812 271.378906 539.757812 337.617188 C 539.757812 398.796875 501.316406 433.328125 473.253906 458.496094 Z M 473.253906 458.496094 " fill-opacity="1" fill-rule="nonzero"/><g clip-path="url(#29e0510e7b)"><path fill="#2563eb" d="M 36.273438 735.765625 L 44.597656 735.765625 C 44.59375 735.421875 44.589844 735.097656 44.585938 734.796875 C 44.527344 730.585938 44.652344 729.753906 49.386719 724.964844 C 52.695312 721.613281 56.8125 717.449219 56.566406 710.890625 C 56.246094 702.515625 49.4375 695.707031 41.058594 695.390625 C 36.636719 695.214844 32.4375 696.816406 29.242188 699.886719 C 26.1875 702.828125 24.449219 706.738281 24.308594 710.949219 L 32.640625 710.949219 C 32.777344 709.023438 33.609375 707.242188 35.019531 705.886719 C 36.589844 704.375 38.65625 703.597656 40.839844 703.710938 C 44.363281 703.890625 47.347656 706.523438 48.105469 710.113281 C 48.816406 713.488281 46.804688 715.730469 43.464844 719.113281 C 36.25 726.414062 36.253906 729.230469 36.273438 735.394531 Z M 45.730469 736.894531 L 35.140625 736.894531 L 35.140625 735.398438 C 35.125 729.109375 35.117188 725.949219 42.660156 718.316406 C 45.917969 715.019531 47.59375 713.167969 47 710.347656 C 46.359375 707.308594 43.746094 704.992188 40.78125 704.84375 C 38.917969 704.75 37.144531 705.410156 35.800781 706.703125 C 34.480469 707.972656 33.753906 709.683594 33.753906 711.515625 L 33.753906 712.082031 L 23.167969 712.082031 L 23.167969 711.515625 C 23.167969 706.777344 25.046875 702.359375 28.457031 699.074219 C 31.875 695.785156 36.371094 694.070312 41.101562 694.257812 C 50.066406 694.597656 57.355469 701.886719 57.695312 710.847656 C 57.960938 717.894531 53.652344 722.253906 50.191406 725.757812 C 45.65625 730.347656 45.664062 730.9375 45.71875 734.78125 C 45.722656 735.25 45.730469 735.761719 45.730469 736.332031 L 45.730469 736.894531 " fill-opacity="1" fill-rule="nonzero"/></g><g clip-path="url(#6a80d45a9b)"><path fill="#2563eb" d="M 36.273438 750.8125 L 44.597656 750.8125 L 44.597656 742.488281 L 36.273438 742.488281 Z M 45.730469 751.945312 L 35.140625 751.945312 L 35.140625 741.359375 L 45.730469 741.359375 L 45.730469 751.945312 " fill-opacity="1" fill-rule="nonzero"/></g><g clip-path="url(#d45b6ecba2)"><path fill="#2563eb" d="M 742.089844 70.738281 L 750.414062 70.738281 C 750.410156 70.394531 750.40625 70.074219 750.402344 69.769531 C 750.34375 65.5625 750.46875 64.726562 755.203125 59.9375 C 758.511719 56.589844 762.628906 52.421875 762.382812 45.867188 C 762.0625 37.492188 755.253906 30.683594 746.875 30.363281 C 742.453125 30.1875 738.253906 31.789062 735.058594 34.863281 C 732.003906 37.804688 730.265625 41.710938 730.125 45.925781 L 738.457031 45.925781 C 738.59375 43.996094 739.425781 42.21875 740.832031 40.859375 C 742.40625 39.347656 744.472656 38.570312 746.65625 38.683594 C 750.179688 38.867188 753.164062 41.5 753.921875 45.089844 C 754.632812 48.460938 752.621094 50.707031 749.28125 54.085938 C 742.066406 61.390625 742.070312 64.203125 742.089844 70.367188 Z M 751.546875 71.871094 L 740.957031 71.871094 L 740.957031 70.371094 C 740.941406 64.082031 740.933594 60.925781 748.476562 53.289062 C 751.734375 49.992188 753.410156 48.140625 752.816406 45.320312 C 752.175781 42.28125 749.5625 39.964844 746.597656 39.816406 C 744.734375 39.722656 742.960938 40.382812 741.617188 41.675781 C 740.296875 42.949219 739.570312 44.65625 739.570312 46.492188 L 739.570312 47.054688 L 728.984375 47.054688 L 728.984375 46.492188 C 728.984375 41.753906 730.863281 37.335938 734.273438 34.046875 C 737.691406 30.757812 742.1875 29.042969 746.917969 29.234375 C 755.882812 29.574219 763.171875 36.859375 763.511719 45.824219 C 763.777344 52.867188 759.46875 57.226562 756.007812 60.734375 C 751.472656 65.320312 751.480469 65.914062 751.53125 69.753906 C 751.539062 70.222656 751.546875 70.734375 751.546875 71.304688 L 751.546875 71.871094 " fill-opacity="1" fill-rule="nonzero"/></g><g clip-path="url(#a1e33d53a2)"><path fill="#2563eb" d="M 742.089844 85.789062 L 750.414062 85.789062 L 750.414062 77.464844 L 742.089844 77.464844 Z M 751.546875 86.917969 L 740.957031 86.917969 L 740.957031 76.332031 L 751.546875 76.332031 L 751.546875 86.917969 " fill-opacity="1" fill-rule="nonzero"/></g></svg>