<svg xmlns="http://www.w3.org/2000/svg" xmlns:xlink="http://www.w3.org/1999/xlink" width="1080" zoomAndPan="magnify" viewBox="0 0 810 809.999993" height="1080" preserveAspectRatio="xMidYMid meet" version="1.0"><defs><clipPath id="88609e3818"><path d="M 717 43.398438 L 756 43.398438 L 756 72.648438 L 717 72.648438 Z M 717 43.398438 " clip-rule="nonzero"/></clipPath><clipPath id="8e0daffb85"><path d="M 740 43.398438 L 772.839844 43.398438 L 772.839844 72.648438 L 740 72.648438 Z M 740 43.398438 " clip-rule="nonzero"/></clipPath><clipPath id="3f7642b7c1"><path d="M 37.480469 723.183594 L 77 723.183594 L 77 752.433594 L 37.480469 752.433594 Z M 37.480469 723.183594 " clip-rule="nonzero"/></clipPath><clipPath id="4d20a0ffb8"><path d="M 61 723.183594 L 93 723.183594 L 93 752.433594 L 61 752.433594 Z M 61 723.183594 " clip-rule="nonzero"/></clipPath></defs><path fill="#2563eb" d="M 404.929688 221.554688 C 303.8125 221.554688 221.550781 303.816406 221.550781 404.929688 C 221.550781 506.046875 303.8125 588.308594 404.929688 588.308594 C 506.042969 588.308594 588.304688 506.046875 588.304688 404.929688 C 588.304688 303.816406 506.042969 221.554688 404.929688 221.554688 Z M 500.835938 358.210938 L 398.960938 460.089844 C 391.003906 468.046875 378.105469 468.042969 370.144531 460.089844 L 309.019531 398.960938 C 301.0625 391.007812 301.0625 378.105469 309.019531 370.148438 C 316.976562 362.191406 329.878906 362.191406 337.835938 370.148438 L 384.554688 416.867188 L 472.023438 329.398438 C 479.980469 321.441406 492.878906 321.441406 500.835938 329.398438 C 508.792969 337.355469 508.792969 350.253906 500.835938 358.210938 Z M 500.835938 358.210938 " fill-opacity="1" fill-rule="nonzero"/><path fill="#2563eb" d="M 725.84375 404.929688 L 742.605469 337.28125 C 744.160156 331.011719 742.648438 324.375 738.535156 319.398438 L 694.125 265.667969 L 679.753906 197.457031 C 678.425781 191.152344 674.1875 185.84375 668.332031 183.148438 L 605.019531 154.019531 L 562.574219 98.738281 C 558.714844 93.714844 552.738281 90.773438 546.414062 90.773438 C 542.972656 90.773438 564.542969 90.453125 476.363281 92.003906 L 414.074219 60.71875 C 408.320312 57.828125 401.535156 57.828125 395.78125 60.71875 L 333.496094 92 L 263.800781 90.773438 C 256.980469 90.699219 251.039062 93.84375 247.28125 98.738281 L 204.835938 154.015625 L 141.523438 183.148438 C 135.667969 185.84375 131.433594 191.152344 130.105469 197.457031 L 115.730469 265.667969 L 71.324219 319.402344 C 67.210938 324.378906 65.699219 331.011719 67.253906 337.28125 L 84.011719 404.929688 L 67.25 472.582031 C 65.699219 478.851562 67.210938 485.484375 71.324219 490.460938 L 115.730469 544.195312 L 130.101562 612.402344 C 131.433594 618.710938 135.667969 624.019531 141.523438 626.710938 L 204.835938 655.84375 L 247.28125 711.121094 C 251.140625 716.148438 257.117188 719.085938 263.441406 719.085938 C 266.886719 719.085938 245.316406 719.410156 333.496094 717.859375 L 395.78125 749.144531 C 401.570312 752.050781 408.347656 752.015625 414.070312 749.144531 L 476.355469 717.859375 L 546.054688 719.085938 C 552.875 719.164062 558.8125 716.019531 562.570312 711.121094 L 605.015625 655.84375 L 668.332031 626.714844 C 674.1875 624.019531 678.421875 618.710938 679.75 612.402344 L 694.121094 544.195312 L 738.53125 490.460938 C 742.644531 485.484375 744.15625 478.847656 742.601562 472.582031 Z M 404.929688 629.058594 C 281.34375 629.058594 180.800781 528.515625 180.800781 404.929688 C 180.800781 281.347656 281.34375 180.800781 404.929688 180.800781 C 528.515625 180.800781 629.054688 281.347656 629.054688 404.929688 C 629.054688 528.515625 528.515625 629.058594 404.929688 629.058594 Z M 404.929688 629.058594 " fill-opacity="1" fill-rule="nonzero"/><g clip-path="url(#88609e3818)"><path fill="#2563eb" d="M 729.917969 72.296875 C 729.0625 72.296875 728.234375 71.953125 727.625 71.351562 L 717.988281 61.707031 C 716.71875 60.441406 716.71875 58.390625 717.988281 57.125 C 719.253906 55.855469 721.304688 55.855469 722.570312 57.125 L 729.917969 64.472656 L 749.742188 44.648438 C 751.011719 43.378906 753.0625 43.378906 754.328125 44.648438 C 755.59375 45.914062 755.59375 47.964844 754.328125 49.230469 L 732.214844 71.351562 C 731.605469 71.960938 730.78125 72.296875 729.917969 72.296875 Z M 729.917969 72.296875 " fill-opacity="1" fill-rule="nonzero"/></g><g clip-path="url(#8e0daffb85)"><path fill="#2563eb" d="M 744.785156 62.589844 L 746.664062 64.472656 L 766.484375 44.648438 C 767.753906 43.378906 769.804688 43.378906 771.070312 44.648438 C 772.335938 45.914062 772.335938 47.964844 771.070312 49.230469 L 748.957031 71.351562 C 748.347656 71.960938 747.523438 72.296875 746.660156 72.296875 C 745.796875 72.296875 744.976562 71.960938 744.367188 71.351562 L 740.195312 67.179688 L 744.78125 62.597656 Z M 744.785156 62.589844 " fill-opacity="1" fill-rule="nonzero"/></g><g clip-path="url(#3f7642b7c1)"><path fill="#2563eb" d="M 50.808594 752.082031 C 49.953125 752.082031 49.125 751.738281 48.515625 751.136719 L 38.878906 741.492188 C 37.609375 740.226562 37.609375 738.175781 38.878906 736.910156 C 40.144531 735.640625 42.195312 735.640625 43.460938 736.910156 L 50.808594 744.257812 L 70.636719 724.433594 C 71.902344 723.164062 73.953125 723.164062 75.21875 724.433594 C 76.488281 725.699219 76.488281 727.75 75.21875 729.015625 L 53.105469 751.136719 C 52.496094 751.746094 51.671875 752.082031 50.808594 752.082031 Z M 50.808594 752.082031 " fill-opacity="1" fill-rule="nonzero"/></g><g clip-path="url(#4d20a0ffb8)"><path fill="#2563eb" d="M 65.675781 742.375 L 67.558594 744.257812 L 87.375 724.433594 C 88.644531 723.164062 90.695312 723.164062 91.960938 724.433594 C 93.226562 725.699219 93.226562 727.75 91.960938 729.015625 L 69.847656 751.136719 C 69.238281 751.746094 68.414062 752.082031 67.550781 752.082031 C 66.6875 752.082031 65.867188 751.746094 65.257812 751.136719 L 61.085938 746.964844 Z M 65.675781 742.375 " fill-opacity="1" fill-rule="nonzero"/></g></svg>